<?xml version="1.0" standalone="no"?>
<!DOCTYPE svg PUBLIC "-//W3C//DTD SVG 20010904//EN"
 "http://www.w3.org/TR/2001/REC-SVG-20010904/DTD/svg10.dtd">
<svg version="1.0" xmlns="http://www.w3.org/2000/svg"
 width="1000.000000pt" height="1000.000000pt" viewBox="0 0 1000.000000 1000.000000"
 preserveAspectRatio="xMidYMid meet">
<metadata>
Created by potrace 1.14, written by Peter Selinger 2001-2017
</metadata>
<g transform="translate(0.000000,1000.000000) scale(0.100000,-0.100000)"
fill="#000000" stroke="none">
<path d="M4206 7677 c3 -9 -4 -13 -23 -12 -15 1 -32 -1 -36 -3 -14 -7 -134 -5
-146 2 -7 5 -8 1 -4 -10 4 -12 3 -15 -5 -10 -6 4 -21 -3 -33 -15 -13 -13 -20
-16 -17 -7 4 9 0 15 -8 15 -8 0 -14 -5 -14 -10 0 -5 -7 -6 -16 -3 -8 3 -13 2
-10 -3 3 -5 -1 -11 -9 -15 -8 -3 -15 0 -15 7 0 8 -4 7 -10 -3 -10 -16 -38 -20
-57 -7 -6 4 -14 3 -18 -3 -3 -6 -12 -7 -18 -3 -7 4 -6 -1 2 -11 8 -9 10 -16 5
-15 -24 4 -54 -2 -54 -12 0 -5 5 -7 12 -3 7 4 8 3 4 -5 -4 -6 -11 -9 -16 -6
-5 3 -19 1 -30 -5 -15 -8 -20 -8 -20 2 0 10 -2 10 -9 -1 -5 -7 -14 -10 -20 -7
-6 4 -11 1 -11 -8 0 -8 -5 -18 -12 -22 -7 -5 -8 -3 -3 6 5 8 3 11 -6 8 -8 -3
-14 -10 -14 -15 0 -6 -4 -15 -9 -20 -5 -4 -6 -3 -2 4 3 6 2 14 -4 18 -5 3 -10
0 -10 -7 0 -8 -14 -19 -31 -25 -28 -11 -29 -10 -19 5 7 9 -2 1 -20 -18 -18
-19 -30 -30 -27 -24 3 6 0 11 -7 11 -8 0 -12 -7 -8 -15 3 -10 1 -13 -6 -8 -7
4 -12 2 -12 -4 0 -7 -7 -7 -22 1 -21 11 -22 11 -9 -4 12 -15 11 -17 -3 -17
-10 0 -15 -4 -11 -9 3 -6 -3 -8 -15 -6 -11 2 -23 -1 -26 -7 -5 -7 -2 -8 6 -3
8 5 11 4 6 -3 -4 -6 -14 -8 -23 -5 -12 5 -15 2 -10 -10 4 -10 2 -16 -6 -14 -7
1 -11 -4 -9 -12 3 -12 0 -12 -12 -1 -14 10 -16 10 -17 -6 -1 -11 -1 -22 0 -26
0 -4 -11 -3 -25 2 -32 13 -43 13 -24 0 13 -8 13 -11 1 -22 -12 -11 -13 -10 -7
2 5 10 3 9 -7 -2 -11 -14 -16 -15 -26 -5 -10 9 -11 8 -5 -7 6 -15 4 -17 -6
-11 -10 6 -12 4 -6 -10 6 -16 4 -16 -11 -4 -11 9 -14 10 -9 2 4 -8 1 -13 -8
-13 -9 0 -16 -5 -16 -11 0 -5 6 -7 13 -3 7 4 9 3 4 -2 -5 -5 -14 -9 -20 -9 -6
0 -16 -10 -23 -22 -6 -13 -14 -20 -19 -15 -4 4 -6 0 -2 -9 4 -12 -1 -15 -19
-13 -20 2 -23 0 -14 -11 8 -10 8 -15 -1 -21 -8 -5 -10 -3 -5 7 4 8 1 6 -7 -3
-11 -14 -16 -15 -27 -5 -10 9 -11 9 -6 -1 8 -14 -18 -45 -29 -34 -4 4 -2 -4 5
-17 8 -15 8 -21 1 -17 -6 4 -11 2 -11 -3 0 -6 -5 -11 -11 -11 -5 0 -7 6 -3 13
4 6 -2 3 -14 -7 -18 -16 -20 -22 -9 -34 11 -13 9 -14 -13 -2 -23 12 -24 12
-11 -3 11 -14 11 -18 -3 -23 -9 -3 -16 -10 -16 -16 0 -5 5 -6 12 -2 6 4 8 3 4
-4 -3 -6 -16 -9 -27 -7 -18 4 -19 2 -7 -12 7 -9 8 -14 2 -10 -7 4 -14 -2 -17
-14 -3 -12 -10 -18 -16 -15 -5 4 -13 1 -17 -5 -4 -8 -3 -9 4 -5 7 4 12 3 12
-2 0 -5 -10 -14 -22 -21 -13 -6 -15 -9 -5 -7 21 7 22 -1 2 -21 -13 -12 -13
-18 -3 -32 7 -9 8 -13 4 -9 -5 4 -16 2 -24 -5 -13 -10 -14 -9 -7 3 7 12 6 13
-6 2 -8 -7 -15 -17 -15 -22 -1 -6 -2 -15 -3 -21 0 -5 -6 -7 -13 -3 -7 4 -8 3
-4 -5 10 -15 -1 -64 -12 -57 -5 3 -6 -8 -4 -25 3 -17 0 -29 -7 -29 -6 0 -11
-7 -11 -15 0 -8 -4 -15 -9 -15 -5 0 -8 -11 -6 -25 1 -14 -2 -25 -8 -25 -5 0
-7 -9 -4 -20 3 -13 0 -20 -10 -20 -8 0 -13 -6 -10 -12 6 -17 -12 -50 -23 -43
-5 3 -12 0 -16 -6 -4 -7 -3 -9 4 -5 6 3 13 2 17 -4 3 -5 1 -10 -5 -10 -7 0
-10 -6 -7 -12 2 -7 0 -24 -6 -38 -16 -41 -16 -49 1 -43 10 4 6 -3 -8 -15 -14
-12 -19 -21 -12 -22 9 0 10 -5 4 -17 -5 -10 -7 -24 -4 -32 3 -8 0 -11 -7 -7
-7 5 -9 1 -5 -8 4 -10 1 -16 -7 -16 -11 0 -11 -3 1 -10 12 -7 12 -10 1 -10 -8
0 -11 -6 -7 -16 4 -10 2 -13 -6 -8 -7 5 -9 2 -6 -8 4 -8 3 -20 -2 -27 -4 -7
-4 -28 0 -47 5 -20 4 -37 -2 -40 -5 -3 -4 -11 3 -20 9 -11 9 -14 0 -14 -7 0
-9 -5 -5 -11 3 -6 0 -15 -7 -20 -12 -7 -11 -9 1 -9 12 0 12 -2 2 -9 -15 -9
-23 -71 -10 -71 5 0 4 -9 -2 -20 -8 -14 -8 -20 0 -20 8 0 8 -6 0 -20 -8 -14
-8 -20 0 -20 8 0 8 -6 0 -20 -8 -14 -8 -20 0 -20 8 0 8 -6 0 -20 -8 -14 -8
-20 0 -20 8 0 8 -6 0 -20 -8 -14 -8 -20 0 -20 8 0 8 -6 0 -20 -8 -14 -8 -20 0
-20 8 0 8 -6 0 -20 -8 -14 -8 -20 0 -20 8 0 8 -6 0 -20 -8 -14 -8 -20 0 -20 8
0 8 -6 0 -20 -8 -14 -8 -20 0 -20 8 0 8 -6 0 -20 -8 -14 -8 -20 0 -20 8 0 8
-6 0 -20 -8 -14 -8 -20 0 -20 8 0 8 -6 0 -20 -8 -15 -8 -20 1 -20 9 0 9 -3 0
-14 -9 -10 -9 -16 -1 -21 8 -5 8 -10 0 -20 -8 -10 -8 -15 0 -20 8 -5 8 -10 0
-20 -8 -10 -8 -15 1 -21 18 -11 -16 -22 -71 -23 -29 -1 -40 -4 -31 -10 10 -6
10 -10 1 -16 -9 -6 -9 -10 1 -16 11 -7 10 -9 -3 -9 -10 0 -18 -5 -18 -11 0 -6
-7 -8 -16 -5 -8 3 -12 2 -9 -3 7 -12 -39 -63 -48 -54 -4 3 -7 -1 -7 -11 0 -11
-4 -15 -12 -10 -8 5 -7 0 2 -11 9 -11 10 -16 3 -11 -7 4 -13 3 -13 -3 0 -6
-12 -14 -26 -17 -19 -5 -22 -9 -12 -15 10 -7 9 -9 -5 -9 -9 0 -16 -3 -16 -7 1
-5 1 -15 0 -23 -1 -13 -2 -13 -11 0 -8 13 -10 12 -11 -5 -1 -11 -1 -23 -1 -26
1 -3 -6 -6 -13 -6 -12 0 -12 3 -2 16 11 14 10 14 -6 2 -10 -8 -16 -20 -13 -27
3 -7 1 -16 -4 -19 -6 -4 -10 -1 -10 5 0 6 -4 9 -9 5 -6 -3 -8 -15 -6 -26 3
-16 1 -18 -9 -10 -11 9 -15 6 -21 -16 -4 -16 -10 -22 -12 -15 -7 19 -19 14
-20 -10 -1 -12 -12 -31 -25 -41 -13 -10 -17 -16 -10 -12 11 6 12 3 3 -13 -6
-12 -17 -24 -24 -28 -9 -6 -9 -5 0 7 10 13 10 16 -2 16 -7 0 -14 -3 -13 -6 2
-25 -5 -39 -23 -44 -17 -5 -19 -9 -10 -25 9 -17 8 -19 -9 -15 -14 4 -20 0 -20
-11 0 -10 -4 -14 -10 -11 -5 3 -10 1 -10 -5 0 -7 -7 -10 -14 -7 -10 4 -13 1
-9 -9 3 -9 -1 -14 -13 -14 -16 0 -17 -2 -4 -10 13 -9 13 -10 0 -10 -9 0 -21
-14 -27 -31 -8 -20 -16 -28 -24 -23 -8 4 -9 3 -5 -5 4 -6 12 -9 17 -6 5 4 9 1
9 -4 0 -10 -22 -16 -44 -12 -5 1 -4 -5 4 -13 12 -16 4 -22 -23 -17 -4 1 -3 -8
3 -19 8 -16 8 -20 -2 -18 -7 2 -12 -3 -10 -10 1 -8 -2 -11 -7 -8 -5 4 -16 -3
-24 -14 -7 -11 -17 -17 -21 -13 -4 4 -4 -1 0 -11 6 -15 4 -17 -6 -11 -8 5 -11
4 -6 -3 3 -5 0 -13 -6 -15 -9 -4 -9 -6 1 -6 11 -1 10 -5 -4 -15 -17 -12 -18
-16 -5 -32 12 -16 12 -17 0 -6 -18 16 -38 16 -22 0 16 -16 15 -28 -3 -28 -8 0
-14 -6 -12 -12 1 -7 -3 -12 -10 -11 -6 1 -17 -5 -25 -15 -12 -15 -11 -16 5 -3
10 8 17 9 17 3 0 -6 -9 -16 -20 -22 -16 -9 -18 -15 -10 -30 8 -16 8 -18 -4
-14 -8 3 -17 0 -22 -7 -4 -7 -3 -10 4 -5 6 3 14 2 17 -4 4 -6 3 -10 -2 -9 -21
4 -34 -2 -27 -13 5 -7 2 -9 -9 -5 -12 4 -14 2 -10 -10 4 -10 2 -14 -4 -10 -6
4 -9 -6 -8 -23 1 -16 -4 -31 -11 -34 -7 -3 -11 -14 -9 -25 2 -12 -1 -18 -8
-15 -8 3 -16 -13 -23 -40 -5 -25 -6 -42 -2 -40 5 3 3 -6 -3 -20 -7 -14 -15
-23 -19 -21 -4 2 -5 -7 -2 -22 3 -18 1 -24 -6 -19 -8 5 -10 1 -5 -10 5 -12 3
-15 -6 -9 -10 6 -11 3 -2 -14 7 -12 8 -21 2 -21 -5 0 -7 -9 -4 -20 3 -11 1
-20 -4 -20 -5 0 -9 -8 -9 -17 -1 -10 -2 -38 -3 -63 -4 -66 -3 -72 17 -68 9 1
22 -1 29 -5 6 -4 15 -3 18 3 5 8 11 7 21 -1 10 -8 18 -8 27 0 10 8 17 7 25 -1
9 -9 12 -9 12 1 0 8 6 11 15 7 8 -3 15 -1 15 4 0 6 5 10 11 10 5 0 7 -5 3 -12
-4 -6 3 -4 15 5 13 8 30 13 39 10 11 -5 13 -3 7 7 -6 10 -4 12 8 7 9 -3 21 1
29 11 12 15 11 16 -4 4 -12 -10 -18 -10 -24 -1 -4 7 -3 9 4 5 6 -3 13 -2 17 4
3 5 13 10 22 10 9 0 22 8 29 18 8 10 13 12 14 5 0 -7 10 -3 23 10 13 12 21 27
18 32 -3 6 4 3 14 -5 11 -9 16 -10 11 -2 -7 11 12 18 38 13 5 -1 6 6 2 15 -5
14 -4 15 8 5 11 -9 15 -8 20 4 4 11 2 14 -6 9 -7 -4 -8 -3 -4 5 6 9 11 9 22 0
12 -10 13 -9 8 6 -5 12 -4 16 4 11 6 -3 15 1 20 9 4 9 17 17 29 17 11 1 20 8
20 15 0 10 -4 10 -16 0 -14 -11 -14 -10 -2 6 8 10 20 16 27 13 6 -2 22 6 35
20 12 13 19 24 15 24 -4 0 -2 9 4 20 6 11 17 20 25 20 8 0 15 7 15 15 0 8 6
15 13 15 9 0 9 2 -1 9 -10 6 -9 10 7 14 15 4 21 13 21 34 0 22 2 25 10 13 7
-11 10 -11 10 -2 0 7 4 11 8 8 4 -2 9 7 10 22 5 67 6 72 21 67 11 -5 12 -3 1
10 -11 13 -11 16 -1 13 13 -3 18 11 23 59 1 12 5 20 9 17 4 -2 9 7 11 21 3 14
1 25 -4 25 -5 0 -4 9 2 20 6 11 8 20 5 20 -3 0 1 16 9 35 9 21 11 35 5 35 -6
0 -7 5 -4 10 4 6 12 7 18 3 7 -4 6 0 -2 10 -8 10 -9 17 -3 17 6 0 10 14 10 32
-1 18 4 34 11 36 9 3 9 7 0 18 -9 11 -9 14 1 14 7 0 10 7 7 15 -4 8 -2 17 4
21 6 4 6 11 -2 20 -9 11 -8 14 2 14 11 0 11 2 -1 10 -9 6 -10 10 -3 10 7 0 10
10 7 26 -3 18 -1 23 7 18 7 -4 10 -2 7 7 -3 8 -1 22 4 33 7 13 6 21 -3 27 -11
7 -11 9 -1 9 8 0 10 5 6 13 -5 8 -2 7 9 -2 15 -12 17 -12 11 3 -3 9 -1 23 6
31 7 9 10 18 7 21 -3 3 -2 17 3 30 5 13 6 24 1 24 -10 0 -7 37 4 47 4 5 5 3 1
-4 -3 -6 -2 -15 4 -18 6 -4 10 -3 9 2 -5 28 2 63 12 57 8 -5 8 -1 0 13 -8 16
-6 24 9 40 14 16 16 23 7 33 -9 10 -9 11 1 5 10 -5 13 -1 10 16 -4 31 47 63
62 39 6 -9 6 -16 0 -18 -6 -2 -6 -11 0 -23 7 -13 7 -19 1 -19 -7 0 -7 -9 -1
-26 6 -14 6 -23 2 -20 -9 6 -7 -47 3 -63 3 -6 3 -11 -2 -11 -4 0 -8 -11 -8
-25 0 -14 4 -25 9 -25 5 0 3 -6 -3 -14 -7 -9 -8 -17 -2 -20 10 -7 9 -31 -2
-42 -4 -4 -2 -13 4 -20 7 -8 7 -14 -1 -19 -8 -5 -8 -11 1 -21 7 -8 7 -14 1
-14 -5 0 -12 -8 -16 -17 -3 -10 -9 -24 -12 -32 -4 -9 -2 -11 5 -7 7 4 11 0 11
-11 0 -11 5 -24 12 -31 9 -9 9 -12 -1 -12 -11 0 -11 -3 0 -17 11 -12 14 -64
14 -232 0 -119 4 -219 9 -222 4 -4 9 -20 11 -37 1 -16 5 -35 9 -41 4 -6 2 -11
-5 -11 -9 0 -9 -3 0 -14 9 -10 9 -16 1 -21 -8 -5 -8 -11 -1 -19 7 -9 7 -16 0
-23 -8 -8 -8 -13 0 -17 8 -5 8 -13 1 -26 -7 -13 -7 -21 0 -25 8 -5 8 -11 0
-20 -8 -10 -8 -15 1 -21 8 -5 9 -3 4 6 -5 8 -4 11 3 7 5 -4 8 -16 5 -28 -3
-12 0 -25 7 -29 9 -5 9 -13 2 -27 -8 -14 -8 -23 -1 -30 8 -8 7 -13 0 -17 -6
-4 -11 -12 -11 -17 0 -6 4 -8 9 -4 10 6 26 -33 17 -42 -3 -3 -1 -15 5 -26 6
-10 7 -17 2 -14 -6 4 -5 -9 1 -28 6 -19 14 -35 18 -35 7 0 23 -59 20 -72 -1
-4 5 -5 12 -2 10 4 14 -1 12 -19 -2 -14 2 -24 10 -24 7 0 10 5 7 10 -3 6 -1 7
5 4 5 -4 8 -16 5 -26 -3 -10 0 -22 6 -25 7 -5 9 0 5 11 -5 14 -4 15 4 4 6 -8
8 -19 6 -25 -2 -6 9 -17 26 -23 29 -11 42 -33 19 -33 -5 0 -8 4 -5 9 3 5 -1
11 -9 15 -26 10 -16 -14 13 -32 17 -10 27 -23 25 -32 -4 -13 -3 -13 6 0 9 13
12 11 17 -8 5 -18 9 -20 15 -10 6 9 9 6 9 -12 0 -20 2 -22 10 -10 8 12 10 12
10 1 0 -8 3 -11 7 -8 3 4 12 -1 20 -11 8 -9 11 -11 8 -4 -6 11 -3 12 12 3 11
-6 24 -7 28 -3 4 4 2 -4 -5 -17 -6 -13 -8 -21 -3 -18 5 3 22 0 37 -8 14 -8 24
-10 20 -4 -3 6 4 5 17 -3 30 -17 49 -34 44 -40 -2 -2 5 -10 17 -17 16 -10 19
-10 12 1 -4 7 3 4 16 -7 13 -11 20 -15 17 -8 -4 6 -2 15 4 19 7 4 9 3 6 -3 -7
-11 20 -28 37 -24 5 1 4 -5 -3 -13 -10 -12 -9 -14 8 -9 14 3 23 -1 27 -12 5
-13 9 -14 15 -3 5 7 9 8 9 3 0 -6 12 -12 26 -13 15 -1 33 -10 41 -20 8 -9 12
-11 8 -4 -3 6 -2 12 3 12 6 0 13 -7 16 -16 4 -9 13 -14 21 -10 8 3 15 2 15 -3
0 -13 36 -20 51 -11 7 5 23 1 38 -8 25 -16 26 -16 12 3 -14 19 -14 19 5 2 16
-15 17 -19 4 -27 -12 -8 -12 -10 -1 -10 9 0 11 -7 7 -22 -14 -47 -14 -58 -4
-64 6 -4 5 -10 -3 -15 -8 -5 -9 -9 -4 -9 14 0 11 -60 -4 -70 -7 -4 -12 -10
-12 -14 4 -28 -2 -45 -16 -49 -17 -4 -17 -5 0 -6 17 -1 17 -2 2 -17 -9 -9 -14
-23 -11 -30 3 -8 2 -14 -3 -14 -8 0 -12 -22 -13 -77 0 -13 -4 -20 -9 -17 -5 3
-7 -9 -5 -25 2 -17 -1 -28 -5 -25 -8 5 -13 -16 -10 -43 1 -7 -8 -17 -19 -23
-15 -8 -18 -15 -11 -24 15 -18 2 -55 -20 -55 -10 -1 -28 -1 -39 -2 -11 0 -18
-4 -15 -10 4 -5 -3 -9 -15 -9 -12 0 -18 -4 -15 -10 3 -6 -1 -7 -9 -4 -9 3 -13
11 -9 17 3 6 1 7 -5 3 -7 -4 -12 -14 -12 -23 0 -9 -3 -13 -6 -10 -4 3 -16 2
-27 -4 -13 -7 -17 -7 -13 -1 3 6 1 14 -5 18 -7 4 -9 3 -6 -3 4 -6 1 -16 -7
-22 -11 -9 -15 -9 -18 0 -3 8 -9 7 -20 -4 -12 -12 -18 -13 -28 -4 -10 9 -11 9
-6 0 4 -7 2 -13 -4 -13 -6 0 -8 -5 -5 -10 4 -6 1 -9 -7 -8 -7 2 -12 -3 -10
-11 3 -12 0 -12 -12 -1 -12 9 -16 9 -16 1 0 -7 -4 -9 -10 -6 -5 3 -10 2 -10
-4 0 -6 -11 -6 -30 -1 -19 5 -28 5 -25 -1 4 -5 -1 -9 -9 -9 -9 0 -16 -4 -16
-9 0 -5 -9 -11 -21 -14 -14 -4 -18 -10 -13 -19 6 -10 4 -10 -9 1 -15 12 -17
11 -17 -4 0 -15 -2 -15 -16 -4 -14 11 -18 11 -29 -4 -7 -9 -19 -17 -26 -17
-20 0 -19 -42 0 -57 9 -6 16 -17 16 -25 0 -9 10 -12 30 -10 17 2 27 1 23 -4
-14 -13 25 -32 48 -24 13 5 26 4 33 -3 8 -8 11 -7 11 3 0 12 2 12 9 2 4 -8 11
-13 15 -13 3 1 14 1 24 1 14 0 15 -2 2 -10 -13 -9 -13 -10 0 -11 8 0 24 -2 35
-4 11 -2 34 -5 50 -6 17 -2 36 -8 44 -13 11 -8 13 -8 7 1 -5 9 -2 11 8 7 9 -3
16 -10 16 -15 0 -6 8 -5 19 1 14 7 22 7 26 0 5 -8 11 -8 20 0 10 8 15 8 20 0
5 -8 11 -7 23 2 12 10 14 10 8 1 -5 -9 1 -13 18 -13 14 0 26 -4 26 -8 0 -4 11
-8 25 -8 14 0 25 4 25 9 0 5 6 4 14 -2 10 -8 16 -9 21 -1 4 7 12 7 26 0 14 -8
19 -7 19 1 0 9 3 9 14 0 8 -7 17 -8 20 -3 3 5 23 6 46 2 32 -6 40 -4 40 8 0
12 3 12 15 2 13 -11 14 -10 8 5 -5 15 -3 17 12 12 15 -6 16 -5 6 7 -9 10 -9
16 -1 21 6 4 9 14 6 22 -5 11 -2 13 10 9 14 -5 15 -4 4 9 -10 12 -10 15 1 15
10 0 10 3 2 11 -9 9 -7 18 5 37 11 18 12 23 4 18 -11 -7 -12 -4 -2 13 6 13 16
19 23 14 7 -4 5 2 -3 12 -14 17 -13 18 3 12 14 -5 16 -4 8 10 -5 10 -5 26 0
40 6 15 5 23 -2 23 -8 0 -8 4 0 13 6 8 7 18 3 22 -4 5 -1 5 6 1 9 -5 15 -1 19
13 4 17 8 19 19 10 11 -9 14 -8 14 2 0 11 3 11 11 -1 9 -12 10 -11 6 8 -3 12
-1 22 3 22 4 0 6 9 3 20 -3 11 0 20 6 20 5 0 8 7 5 15 -4 9 0 15 7 15 11 0 11
3 -1 10 -11 7 -11 10 -2 10 7 0 11 4 8 9 -3 5 1 14 10 21 8 7 13 19 10 27 -3
7 -1 13 5 13 6 0 7 5 4 10 -3 5 -2 10 3 10 5 0 8 11 7 25 -2 14 1 25 6 25 5 0
9 5 9 11 0 5 -6 7 -12 3 -7 -4 -3 4 9 17 14 15 21 34 19 51 -2 15 0 25 4 23 5
-3 10 2 14 10 3 8 0 15 -7 15 -7 0 -6 4 3 10 17 11 20 30 7 48 -6 8 -5 12 2
12 7 0 9 5 5 12 -11 17 -13 48 -3 48 4 0 6 8 5 18 -1 12 5 16 19 14 11 -2 26
-4 33 -4 6 -1 12 -6 12 -11 0 -5 6 -4 14 2 10 9 16 9 21 1 5 -8 11 -8 21 1 11
9 14 9 14 -1 0 -10 3 -10 14 -1 10 9 16 9 21 1 5 -8 10 -8 20 0 10 8 15 8 20
0 5 -8 11 -8 19 -1 7 6 16 8 20 4 3 -4 14 -8 24 -10 24 -5 83 -13 107 -16 11
-1 27 -9 35 -18 8 -9 21 -14 28 -12 6 3 12 -1 12 -7 0 -9 3 -10 13 -1 8 6 17
8 20 4 9 -8 69 -8 90 0 10 4 17 2 17 -4 0 -6 5 -7 12 -3 10 6 54 6 145 -1 12
-1 29 -7 37 -14 11 -10 16 -10 16 -2 0 8 6 9 18 2 11 -6 24 -6 35 0 9 6 17 6
17 2 0 -9 118 -8 127 1 4 3 12 1 19 -5 8 -7 14 -7 19 1 5 8 11 8 21 -1 11 -9
14 -9 14 1 0 10 3 10 14 1 10 -9 16 -9 21 -1 4 6 12 7 18 3 15 -10 38 -10 54
0 6 4 15 3 18 -3 5 -8 11 -8 20 0 10 8 15 8 20 0 5 -8 10 -8 20 0 10 8 15 8
20 0 5 -8 11 -7 22 2 19 16 17 16 36 0 11 -9 17 -10 22 -2 5 8 11 8 21 -1 11
-9 14 -9 14 1 0 10 3 10 14 1 10 -9 16 -9 21 -1 4 6 12 7 18 3 15 -10 38 -10
54 0 6 4 14 3 18 -3 4 -6 12 -7 18 -3 19 12 36 12 43 2 3 -6 11 -5 20 2 8 6
14 7 14 2 0 -13 64 -7 68 7 3 8 9 7 20 -2 13 -11 14 -11 8 0 -7 11 7 13 68 10
42 -2 76 0 76 4 0 4 10 4 22 -1 13 -4 31 -4 40 0 10 5 27 14 38 19 14 7 20 7
20 0 0 -7 6 -7 20 0 15 8 20 8 20 -2 0 -9 3 -9 12 0 7 7 20 12 30 12 10 0 18
3 18 8 0 4 20 7 45 6 25 0 45 4 45 9 0 5 6 7 13 4 6 -2 22 0 35 4 13 5 21 5
18 1 -2 -4 4 -8 14 -8 10 0 16 4 14 8 -3 4 6 4 20 -2 18 -6 26 -6 26 1 0 6 5
7 10 4 6 -3 10 -2 10 3 0 5 18 8 40 8 22 -1 40 3 40 8 0 4 9 6 20 3 14 -3 20
0 20 10 0 13 2 13 16 2 14 -11 18 -10 30 6 9 11 14 14 14 6 0 -11 3 -11 14 -2
12 10 17 8 26 -10 7 -12 8 -19 2 -15 -5 3 -12 -1 -16 -9 -3 -8 -2 -15 3 -15 4
0 7 -10 6 -22 -1 -13 7 -31 17 -40 12 -10 17 -22 12 -29 -4 -8 -3 -9 4 -5 11
7 16 -5 13 -29 -1 -5 6 -1 15 10 15 18 16 18 10 1 -4 -12 0 -24 11 -33 10 -8
12 -12 6 -8 -9 4 -11 1 -7 -9 3 -9 11 -13 17 -9 6 4 8 0 4 -10 -4 -12 -2 -14
10 -10 11 4 14 2 9 -5 -4 -7 -1 -12 9 -12 9 0 14 -4 11 -9 -3 -4 1 -17 9 -27
15 -18 15 -18 9 1 l-7 20 16 -20 c9 -11 17 -26 17 -33 0 -7 4 -10 10 -7 6 4 7
-1 3 -11 -4 -11 -2 -15 4 -11 10 6 27 -27 24 -46 -1 -5 3 -6 9 -2 5 3 10 -1
10 -10 0 -9 4 -14 9 -11 5 3 12 -1 15 -10 3 -8 2 -12 -4 -9 -6 3 -10 1 -10 -4
0 -10 14 -15 34 -12 5 1 6 -5 3 -13 -4 -9 -2 -18 3 -21 5 -3 11 3 14 12 3 10
4 6 2 -8 -1 -16 2 -26 10 -26 7 0 10 5 7 10 -3 6 -1 7 6 3 7 -4 10 -13 8 -19
-2 -7 5 -18 17 -25 15 -10 16 -12 3 -8 -14 5 -16 2 -8 -13 6 -10 7 -22 3 -26
-4 -5 -1 -5 6 -1 7 4 9 13 5 19 -4 7 -1 7 9 -1 9 -8 14 -20 11 -28 -3 -9 2
-14 18 -15 l24 -1 -25 -8 c-17 -5 -19 -8 -7 -9 15 -1 21 -12 18 -33 0 -4 6 -5
14 -2 8 4 15 1 15 -7 0 -7 3 -9 6 -6 4 3 16 2 27 -4 13 -8 17 -8 13 0 -5 7 2
7 24 0 16 -6 30 -15 30 -20 0 -5 6 -9 14 -9 8 0 16 -5 18 -11 2 -7 23 -12 46
-13 23 0 42 -4 42 -8 0 -5 3 -7 8 -7 21 4 32 -2 26 -13 -5 -8 0 -7 11 2 15 12
17 12 10 1 -6 -11 -4 -13 8 -8 12 4 14 2 10 -10 -4 -10 -2 -14 4 -10 5 3 21 0
36 -8 16 -8 29 -10 33 -4 3 5 11 6 17 2 15 -9 47 -11 47 -3 0 8 32 6 47 -3 6
-4 22 -3 35 2 14 5 31 5 38 1 9 -5 20 -4 27 2 7 6 13 7 13 4 0 -4 7 0 16 8 8
9 23 16 32 16 15 0 15 2 2 10 -13 8 -12 10 3 10 10 0 15 5 12 10 -3 6 2 10 12
11 10 0 13 3 6 5 -7 3 -9 12 -6 20 3 7 8 12 12 9 4 -2 8 2 8 10 0 8 -4 12 -9
9 -14 -9 -9 4 8 21 13 12 14 19 4 30 -7 8 -9 15 -5 15 4 0 2 7 -5 15 -11 13
-10 14 6 9 17 -6 17 -5 4 7 -8 8 -21 21 -29 29 -12 13 -13 13 -7 0 4 -8 -1 -4
-12 9 -14 18 -21 20 -27 11 -6 -10 -10 -9 -16 2 -5 9 -19 14 -34 12 -23 -2
-25 0 -13 14 7 9 8 14 4 10 -5 -4 -16 -2 -24 5 -13 9 -14 9 -8 0 5 -9 2 -11
-8 -7 -9 3 -16 11 -16 16 0 6 -6 8 -14 5 -7 -3 -19 0 -26 6 -10 9 -11 9 -6 0
3 -6 2 -15 -4 -18 -6 -4 -10 -3 -9 2 1 4 1 14 0 22 -1 11 -4 11 -18 0 -11 -10
-14 -10 -9 -1 4 7 2 12 -8 12 -8 0 -16 5 -18 10 -2 6 -16 12 -32 14 -15 2 -31
9 -36 16 -6 9 -9 9 -12 0 -2 -8 -12 -5 -30 9 -14 12 -31 21 -36 21 -6 0 -14 5
-18 12 -5 7 -3 8 6 3 9 -5 11 -4 6 4 -4 6 -13 8 -19 4 -15 -9 -47 -12 -42 -3
2 3 0 12 -5 20 -5 8 -5 22 1 32 7 12 6 18 -1 18 -7 0 -8 6 -2 18 10 19 -10 66
-23 54 -4 -4 -5 1 -2 11 5 12 3 16 -5 11 -7 -5 -9 -2 -6 8 4 8 0 15 -8 15 -7
0 -10 -5 -7 -10 3 -6 1 -7 -5 -3 -7 4 -12 14 -12 22 0 8 -4 14 -10 14 -5 0
-10 6 -10 14 0 8 -4 17 -9 20 -5 4 -7 -4 -4 -16 4 -18 1 -16 -15 8 -11 18 -26
35 -34 40 -7 4 -4 -3 7 -16 l20 -24 -26 20 c-15 10 -25 22 -22 27 4 6 -12 11
-29 8 -5 0 -8 4 -8 10 0 5 -4 7 -10 4 -5 -3 -10 1 -10 10 0 9 -5 13 -10 10 -6
-4 -7 -12 -3 -18 4 -7 1 -7 -9 1 -10 8 -14 20 -11 29 4 11 2 14 -5 9 -7 -4
-20 -2 -29 3 -10 6 -14 11 -10 11 5 0 1 10 -7 21 -15 22 -11 53 5 43 5 -3 9 2
9 12 0 11 6 15 20 11 17 -4 18 -2 9 15 -8 15 -8 19 0 14 6 -4 19 -2 28 3 10 6
12 11 6 11 -7 0 -13 5 -13 12 0 6 3 9 6 5 3 -3 24 1 47 9 22 8 49 12 59 8 10
-3 18 0 18 6 0 6 -4 8 -10 5 -5 -3 -10 -4 -10 -1 0 3 10 10 21 17 17 9 20 8
14 -3 -3 -7 3 -2 14 11 12 13 27 21 36 18 8 -4 17 -2 20 4 4 5 14 8 23 7 9 -2
17 2 17 9 0 6 4 15 9 20 5 5 6 3 2 -4 -4 -7 -2 -13 3 -13 6 0 11 4 11 9 0 5
20 12 45 15 25 4 45 12 45 17 0 6 -4 7 -10 4 -5 -3 -10 -4 -10 -1 0 3 10 10
21 17 17 9 20 8 14 -3 -4 -7 2 -2 15 10 18 19 24 21 31 10 5 -7 9 -10 10 -5 1
4 2 10 3 15 1 4 5 13 9 20 5 6 6 12 3 12 -3 0 5 11 18 25 13 14 29 25 36 25 7
0 10 7 6 16 -3 8 -2 12 4 9 6 -3 10 -1 10 5 0 6 5 8 10 5 6 -3 10 -2 10 4 0 6
8 8 18 4 14 -5 13 -3 -3 10 -16 13 -17 17 -5 18 8 1 18 1 22 0 4 0 4 7 1 16
-5 12 -3 14 8 8 12 -8 12 -6 0 8 -12 15 -12 17 4 11 12 -5 16 -4 11 4 -3 6 2
15 11 21 13 8 14 10 4 11 -11 0 -10 4 5 16 10 8 14 13 7 10 -7 -4 -9 1 -6 14
3 11 10 20 15 20 5 0 6 6 2 13 -5 7 -2 7 10 -2 15 -12 17 -12 14 0 -2 8 3 13
10 11 10 -2 10 2 2 17 -7 14 -7 22 0 26 8 5 7 11 -1 21 -10 12 -9 13 4 8 12
-4 14 -1 10 15 -3 13 -1 21 7 21 9 0 9 4 -1 17 -10 11 -10 14 -1 9 8 -5 12 0
12 14 0 13 4 19 11 14 6 -3 3 6 -7 21 -16 25 -19 26 -30 10 -7 -9 -10 -23 -8
-30 3 -7 -1 -15 -10 -18 -8 -3 -17 1 -20 9 -3 8 -2 14 3 14 5 0 8 6 8 13 -3
35 16 106 27 100 6 -4 5 1 -3 10 -10 13 -10 17 -1 17 7 0 10 8 7 20 -3 11 -1
23 4 26 6 3 6 11 1 17 -8 12 10 102 19 93 2 -3 4 7 3 22 0 15 5 33 12 40 7 7
11 19 8 27 -4 8 -1 15 6 15 9 0 9 4 -1 17 -11 13 -11 15 -1 9 11 -6 13 0 11
27 -2 20 0 39 4 43 4 4 2 13 -4 21 -6 7 -7 13 -2 13 5 0 6 27 3 61 -3 33 -2
63 3 66 4 2 3 11 -4 19 -6 8 -7 14 -2 14 5 0 6 24 3 55 -3 30 -3 61 1 67 4 7
4 19 -1 28 -5 9 -4 23 1 32 6 11 5 19 -1 23 -8 5 -7 11 1 21 8 10 8 14 1 14
-8 0 -8 8 -3 23 6 16 3 30 -11 50 -11 15 -14 27 -8 27 6 0 8 5 4 12 -11 18
-12 48 -2 48 5 0 4 9 -2 20 -7 14 -7 20 0 20 7 0 7 6 1 18 -15 28 -30 102 -20
102 5 0 0 16 -11 35 -10 19 -16 37 -11 39 9 6 8 37 -3 54 -4 7 -2 12 6 12 9 0
10 3 2 8 -11 7 -30 83 -27 110 0 6 -3 12 -9 12 -5 0 -6 5 -3 10 3 6 2 10 -3
10 -5 0 -9 6 -10 13 -4 35 -12 80 -17 87 -3 5 1 11 7 13 10 4 10 6 0 6 -7 1
-10 6 -7 11 4 6 1 17 -5 25 -7 8 -9 15 -6 15 4 0 0 7 -9 16 -9 9 -14 23 -11
30 3 7 0 16 -6 20 -7 4 -8 3 -4 -4 4 -7 2 -12 -3 -12 -16 0 -13 16 6 31 11 10
14 10 9 2 -4 -8 -1 -13 9 -13 10 0 13 5 9 13 -5 8 -2 8 9 -2 18 -14 23 -26 8
-16 -5 3 -12 1 -16 -5 -3 -5 1 -10 9 -10 9 0 16 -8 16 -17 0 -15 2 -16 10 -3
7 10 10 11 10 2 0 -7 12 -17 26 -22 15 -6 22 -14 18 -22 -5 -7 -2 -9 8 -5 10
3 26 -6 43 -25 15 -16 42 -36 60 -44 19 -7 36 -18 40 -23 8 -14 124 -67 165
-76 19 -4 41 -12 48 -18 14 -11 288 -23 323 -13 57 15 131 106 173 213 28 70
29 78 28 245 -1 193 0 185 -30 249 -19 38 -31 49 -75 67 -29 12 -72 24 -97 28
-25 3 -52 8 -60 11 -8 3 -37 5 -65 5 -27 -1 -86 6 -130 14 -44 9 -96 19 -115
22 -43 8 -387 8 -415 -1 -11 -3 -29 -6 -40 -6 -20 -1 -55 -50 -55 -77 0 -12
-13 -15 -67 -13 -82 3 -94 6 -86 26 4 11 2 14 -5 9 -7 -4 -12 -2 -12 4 0 6 -5
8 -12 4 -8 -5 -7 0 2 11 14 17 14 18 -10 5 -14 -7 -22 -9 -18 -5 4 5 2 15 -5
24 -11 14 -10 15 8 1 20 -14 20 -14 1 7 -10 13 -23 20 -27 17 -5 -3 -6 2 -3
11 4 9 -1 24 -10 34 -9 10 -13 21 -9 25 4 4 -1 4 -10 0 -10 -3 -17 -3 -15 2 4
16 -13 54 -24 54 -5 0 -7 7 -4 16 4 11 -7 29 -32 54 -21 21 -36 43 -34 49 2 6
-1 11 -7 11 -6 0 -11 8 -11 18 -1 21 -25 54 -33 45 -4 -3 -7 1 -7 11 0 10 -5
14 -11 10 -9 -5 -10 1 -5 22 7 27 6 27 -7 10 -13 -17 -14 -17 -20 -2 -5 12 -3
15 6 10 8 -5 8 -2 -2 9 -7 9 -17 15 -21 12 -5 -3 -12 0 -16 6 -4 8 -3 9 4 5 7
-4 12 -1 12 7 0 17 -32 47 -50 47 -10 0 -10 3 1 17 8 9 9 14 2 10 -7 -4 -14 1
-18 13 -3 11 -13 20 -21 20 -8 0 -12 5 -9 10 3 6 1 10 -5 10 -6 0 -8 5 -4 11
4 7 -4 20 -17 31 -21 16 -21 17 -4 12 18 -5 18 -4 2 6 -9 6 -23 8 -30 4 -9 -6
-8 -3 1 8 11 14 10 18 -6 27 -11 6 -23 7 -27 3 -5 -4 -5 -1 -1 6 7 11 -5 17
-27 13 -5 -1 -6 3 -3 8 3 5 -1 14 -9 21 -7 6 -11 18 -8 26 4 10 -2 17 -15 21
-14 3 -19 10 -15 21 4 10 2 13 -5 8 -7 -4 -12 -2 -12 4 0 6 -5 8 -12 4 -8 -5
-9 -2 -5 9 6 15 -3 22 -25 18 -4 0 -5 8 -3 19 2 11 -1 20 -6 20 -6 0 -7 5 -3
12 4 6 3 8 -3 5 -6 -4 -19 1 -29 9 -19 15 -19 15 0 10 16 -5 17 -4 6 8 -6 9
-17 14 -23 13 -7 -1 -11 3 -10 10 2 7 -4 10 -12 7 -8 -4 -17 1 -21 10 -3 9
-10 14 -14 11 -5 -3 -6 5 -2 17 3 14 1 19 -6 14 -6 -3 -13 2 -17 13 -3 11 -13
25 -23 32 -14 11 -15 11 -4 -1 23 -26 12 -29 -13 -4 -27 27 -33 40 -12 28 8
-6 8 -3 -1 9 -8 9 -17 16 -20 15 -20 -2 -32 3 -27 12 3 5 0 7 -9 4 -8 -3 -19
3 -26 15 -6 12 -7 21 -3 21 4 1 -7 7 -24 15 -18 8 -33 19 -33 25 0 5 -7 10
-15 10 -7 0 -19 8 -24 18 -6 9 -11 12 -11 5 0 -18 -30 -4 -30 14 0 8 -4 11
-10 8 -5 -3 -21 5 -34 18 -14 14 -27 22 -30 19 -3 -3 -6 0 -6 6 0 7 -3 11 -7
11 -21 -3 -44 2 -39 9 5 9 -57 37 -70 33 -4 -2 -10 1 -13 6 -11 15 -52 34 -61
28 -6 -4 -10 2 -10 13 0 15 -6 19 -25 17 -14 -2 -28 1 -31 6 -4 6 -11 6 -19
-1 -9 -8 -15 -8 -20 0 -3 6 -11 8 -16 5 -5 -4 -9 0 -9 7 0 9 -3 9 -10 -2 -8
-12 -10 -12 -10 5 0 17 -2 17 -10 5 -8 -13 -10 -12 -10 3 0 9 -5 17 -11 17 -5
0 -7 -6 -4 -12 4 -7 0 -5 -8 5 -9 10 -18 14 -21 8 -8 -12 -30 -9 -50 8 -9 7
-16 10 -16 6 0 -4 -7 -2 -15 5 -11 9 -15 9 -15 1 0 -8 -6 -9 -17 -3 -10 4 -28
7 -40 7 -12 -1 -21 1 -18 4 6 10 -28 28 -47 25 -10 -1 -18 2 -18 8 0 7 -4 7
-13 0 -8 -7 -18 -7 -27 -2 -8 5 -18 6 -23 3 -4 -3 -18 3 -30 14 -19 16 -20 16
-8 0 12 -15 12 -17 -3 -11 -9 3 -16 9 -16 13 0 3 -20 6 -45 6 -25 0 -45 -3
-45 -8 0 -4 -13 -1 -29 7 -16 9 -31 12 -34 9 -4 -3 -12 -2 -19 4 -15 11 -28
11 -45 0 -6 -4 -14 -3 -18 3 -4 6 -12 7 -18 3 -19 -12 -36 -12 -43 -2 -4 6
-11 6 -19 -1 -10 -8 -15 -8 -20 0 -5 8 -11 8 -21 -1 -11 -9 -14 -9 -14 1 0 10
-3 10 -14 1 -10 -8 -16 -9 -21 -1 -4 7 -12 7 -25 0 -13 -7 -21 -7 -25 0 -5 8
-11 7 -21 -1 -11 -9 -14 -9 -14 1 0 9 -3 10 -13 1 -10 -8 -17 -7 -25 1 -9 9
-12 9 -12 0 0 -9 -5 -10 -18 -3 -11 6 -24 6 -34 0 -11 -6 -19 -5 -23 1 -5 8
-11 7 -21 -1 -11 -9 -14 -9 -14 1 0 9 -3 10 -13 1 -10 -8 -17 -7 -25 1 -9 9
-12 9 -12 0 0 -9 -5 -10 -18 -3 -11 6 -24 6 -34 0 -11 -6 -19 -5 -23 1 -5 8
-11 8 -20 0 -10 -8 -15 -8 -20 0 -5 8 -11 8 -21 -1 -11 -9 -14 -9 -14 1 0 10
-3 10 -14 1 -8 -7 -17 -8 -20 -3 -6 10 -36 9 -53 -1 -6 -4 -15 -3 -18 3 -5 8
-11 8 -20 0 -10 -8 -19 -8 -34 0 -16 8 -19 8 -15 -3z m888 -15 c3 -5 -1 -9 -9
-9 -8 0 -12 4 -9 9 3 4 7 8 9 8 2 0 6 -4 9 -8z m1091 -382 c3 -6 -1 -7 -9 -4
-18 7 -21 14 -7 14 6 0 13 -4 16 -10z m605 -675 c11 -13 10 -14 -4 -9 -9 3
-16 10 -16 15 0 13 6 11 20 -6z m108 -166 c-3 -8 -7 -3 -11 10 -4 17 -3 21 5
13 5 -5 8 -16 6 -23z m56 -78 c14 -15 15 -21 4 -27 -7 -4 -10 -3 -5 1 4 5 0
17 -10 27 -9 10 -14 18 -11 18 3 0 13 -9 22 -19z m329 -495 c4 -10 1 -13 -8
-9 -8 3 -12 9 -9 14 7 12 11 11 17 -5z m37 -141 c7 -9 8 -15 2 -15 -5 0 -12 7
-16 15 -3 8 -4 15 -2 15 2 0 9 -7 16 -15z m-5207 -1765 c-10 -11 -19 -20 -21
-20 -1 0 2 9 8 20 6 11 15 20 20 20 6 0 2 -9 -7 -20z"/>
<path d="M6038 7393 c7 -3 16 -2 19 1 4 3 -2 6 -13 5 -11 0 -14 -3 -6 -6z"/>
<path d="M6592 6864 c10 -10 20 -16 22 -13 3 3 -5 11 -17 18 -21 13 -21 12 -5
-5z"/>
<path d="M2150 3999 c0 -5 5 -7 10 -4 6 3 10 8 10 11 0 2 -4 4 -10 4 -5 0 -10
-5 -10 -11z"/>
<path d="M7150 2610 c0 -5 5 -10 11 -10 5 0 7 5 4 10 -3 6 -8 10 -11 10 -2 0
-4 -4 -4 -10z"/>
</g>
</svg>
